<svg xmlns="http://www.w3.org/2000/svg" width="480" height="480" viewBox="0 0 480 480"><title>晶体</title><desc>晶体：细铅笔双轮廓、彩色斜线排线与自然色块，独立透明画布。</desc><g stroke="#35463E" stroke-linecap="round" stroke-linejoin="round"><g><path d="M115 158L241 68L372 158L331 345L239 411L149 345Z" fill="#8BB9CF" stroke-width="3.6" /><path d="M115 158h257 M241 68l-48 91 47 251 46-251-45-91 M149 345l44-186 M331 345l-45-186" fill="none" stroke-width="4.0" /></g></g><g stroke="#35463E" stroke-opacity=".20" stroke-width="1.1" fill="none"><path d="M122 154.7 L228 85.8"/><path d="M122 181.7 L156 159.6"/><path d="M164 154.4 L206 127.1"/><path d="M214 121.9 L252 97.2"/><path d="M258 93.3 L266 88.1"/><path d="M126 206.1 L188 165.8"/><path d="M204 155.4 L262 117.7"/><path d="M266 115.1 L286 102.1"/><path d="M130 230.5 L180 198.0"/><path d="M186 194.1 L196 187.6"/><path d="M200 185.0 L238 160.3"/><path d="M246 155.1 L272 138.2"/><path d="M278 134.3 L306 116.1"/><path d="M134 254.9 L174 228.9"/><path d="M180 225.0 L200 212.0"/><path d="M204 209.4 L280 160.0"/><path d="M288 154.8 L326 130.1"/><path d="M140 278.0 L166 261.1"/><path d="M172 257.2 L204 236.4"/><path d="M210 232.5 L278 188.3"/><path d="M294 177.9 L322 159.7"/><path d="M330 154.5 L346 144.1"/><path d="M144 302.4 L158 293.3"/><path d="M164 289.4 L208 260.8"/><path d="M214 256.9 L272 219.2"/><path d="M278 215.3 L294 204.9"/><path d="M298 202.3 L362 160.7"/><path d="M156 321.6 L214 283.9"/><path d="M218 281.3 L266 250.1"/><path d="M272 246.2 L300 228.0"/><path d="M304 225.4 L362 187.7"/><path d="M158 347.3 L218 308.3"/><path d="M222 305.7 L260 281.0"/><path d="M266 277.1 L306 251.1"/><path d="M310 248.5 L356 218.6"/><path d="M178 361.3 L222 332.7"/><path d="M228 328.8 L254 311.9"/><path d="M260 308.0 L310 275.5"/><path d="M316 271.6 L348 250.8"/><path d="M196 376.6 L226 357.1"/><path d="M232 353.2 L250 341.5"/><path d="M256 337.6 L316 298.6"/><path d="M322 294.7 L342 281.7"/><path d="M216 390.6 L232 380.2"/><path d="M236 377.6 L244 372.4"/><path d="M250 368.5 L322 321.7"/><path d="M244 399.4 L314 353.9"/></g><g stroke="#35463E" stroke-opacity=".42" transform="translate(.7 -.5)" fill="none"><g><path d="M115 158L241 68L372 158L331 345L239 411L149 345Z" fill="none" stroke-width="1.25" /><path d="M115 158h257 M241 68l-48 91 47 251 46-251-45-91 M149 345l44-186 M331 345l-45-186" fill="none" stroke-width="1.25" /></g></g></svg>