<svg xmlns="http://www.w3.org/2000/svg" width="500" height="500" viewBox="0 0 500 500" version="1.1" xml:space="preserve" style="fill-rule:evenodd;clip-rule:evenodd;stroke-linejoin:round;stroke-miterlimit:2;">
    <g id="Fill-Color">
        <path d="M201.566,367.905C166.822,362.886 112.654,352.784 76.599,340.901C63.704,336.651 53.155,332.205 46.772,327.645C44.856,326.276 43.339,324.916 42.312,323.537C41.53,322.486 41.045,321.458 41.031,320.407C40.985,316.734 41.665,314.271 43.344,312.847C44.558,311.817 46.222,311.396 48.21,311.287C50.666,311.152 53.554,311.528 56.793,312.215C74.454,315.962 101.636,328.682 126.574,328.927C149.381,329.15 157.237,337.1 168.146,346.72C175.923,353.579 185.141,361.281 201.566,367.905Z" style="fill:rgb(136,210,255);" />
        <path d="M257.626,303.514C256.127,302.972 254.09,302.156 252.221,301.138C235.927,292.267 204.525,267.896 188.017,249.764C183.924,245.268 180.76,241.186 179.059,237.842C178.219,236.19 177.684,234.832 177.901,233.755C179.65,225.094 188.262,220.969 196.893,220.977C205.632,220.985 214.665,225.232 217.145,234.128C227.206,270.209 244.913,288.96 253.923,299.097C255.459,300.824 256.728,302.277 257.626,303.514Z" style="fill:rgb(136,210,255);" />
        <path d="M245.312,359.44C242.87,360.38 238.462,361.264 231.332,360.129C217.439,357.917 194.409,348.308 157.618,319.163C154.568,316.746 150.501,315.148 145.672,314.102C138.994,312.656 130.783,312.236 121.963,311.727C101.05,310.522 76.433,308.999 62.095,289.621C61.681,289.061 61.316,288.662 61.452,288.244C61.617,287.738 62.232,287.49 62.976,287.156C64.904,286.289 67.764,285.761 71.336,285.484C94.084,283.718 143.573,292.897 175.697,312.578C188.114,320.185 225.628,341.881 245.312,359.44Z" style="fill:rgb(221,184,251);" />
        <path d="M57.834,354.525C60.324,355.113 63.532,356.117 67.178,357.35C81.428,362.166 102.101,370.366 113.591,372.097C140.508,376.154 181.484,382.025 200.722,385.622C199.335,385.801 197.856,385.953 196.302,386.081C180.777,387.362 158.16,385.914 142.239,383.845C90.152,377.075 79.869,373.484 61.94,358.376C60.339,357.028 58.927,355.655 57.834,354.525Z" style="fill:rgb(221,184,251);" />
        <path d="M298.498,163.172C302.19,161.227 306.583,158.528 310.754,154.986C319.769,147.329 327.706,135.807 325.905,119.609C325.313,114.292 323.664,111.155 321.564,109.84C319.833,108.755 317.64,108.538 314.911,109.627C312.111,110.746 308.444,113.469 303.849,117.896C299.547,122.04 294.327,127.728 288.043,134.94C286.911,132.247 285.753,129.599 284.569,126.999C293.904,114.636 308.497,96.215 319.482,89.658C322.109,88.09 324.399,87.137 326.283,87.725C328.045,88.275 329.025,90.237 329.71,93.567C334.937,118.985 332.548,135.227 328.147,145.861C323.761,156.457 317.42,161.434 315.004,164.42C310.336,170.19 306.106,173.744 302.436,175.858C301.172,171.571 299.859,167.339 298.498,163.172Z" style="fill:rgb(221,184,251);" />
        <path d="M208.694,111.575C218.193,113.496 225.012,118.163 227.701,125.128C229.729,130.382 229.376,136.841 226.337,144.199C223.091,152.061 216.826,160.85 207.053,170.274C202.018,175.13 199.058,183.536 195.961,191.426C194.552,195.013 193.099,198.476 191.299,201.326C189.733,203.806 187.93,205.815 185.54,206.825C165.324,215.369 150.332,213.513 140.603,205.577C131.551,198.194 127.181,185.744 127.268,172.312C127.403,151.738 138.025,128.779 159.251,117.212C171.958,110.287 188.44,107.479 208.694,111.575ZM206.413,128.004C196.222,126.669 161.194,121.88 147.086,155.51C140.644,170.867 143.28,182.949 149.136,190.055C153.829,195.75 160.645,198.373 167.12,197.288C173.482,196.223 179.668,191.581 183.055,182.321C185.735,174.994 187.55,170.723 189.97,167.694C193.608,163.139 198.569,161.46 209.308,156.087C216.606,152.436 219.311,147.38 219.447,142.728C219.656,135.583 213.515,128.934 206.413,128.004Z" style="fill:rgb(221,184,251);" />
        <path d="M313.399,219.639C316.117,208.48 320.717,192.581 326.666,183.466C329.712,178.798 332.88,175.739 336.702,178.365C338.819,179.819 339.808,182.346 340.186,185.49C340.64,189.268 340.163,193.869 339.104,198.916C335.638,215.43 325.933,236.454 319.111,249.973C317.42,239.831 315.519,229.683 313.399,219.639Z" style="fill:rgb(254,108,114);" />
        <path d="M286.029,298.856C279.553,285.295 269.369,253.898 263.855,246.694C249.425,227.842 231.551,209.124 226.441,195.081C225.01,191.148 224.595,187.662 226.032,184.758C227.505,181.779 230.822,179.575 236.261,177.95C238.465,177.291 240.651,177.807 242.821,179.126C245.451,180.724 248.015,183.423 250.544,186.908C258.735,198.197 266.243,217.44 272.27,237.185C279.702,261.535 284.85,286.668 286.029,298.856Z" style="fill:rgb(254,108,114);" />
        <path d="M290.338,140.548C300.881,128.341 308.482,120.261 313.843,116.439C315.231,115.449 316.421,114.77 317.461,114.465C317.93,114.328 318.324,114.231 318.651,114.404C319.063,114.622 319.295,115.107 319.547,115.719C320.013,116.848 320.318,118.347 320.525,120.208C322.088,134.267 315.074,144.214 307.249,150.86C303.706,153.869 299.988,156.217 296.76,157.969C294.724,152.005 292.585,146.188 290.338,140.548Z" style="fill:rgb(253,140,174);" />
        <path d="M205.71,133.371C210.191,133.958 214.168,138.062 214.036,142.57C213.945,145.688 211.778,148.798 206.886,151.246C195.049,157.168 189.75,159.295 185.74,164.316C183.061,167.671 180.94,172.348 177.972,180.461C175.916,186.082 172.649,189.601 168.919,191.168C163.531,193.432 157.356,191.518 153.313,186.612C148.4,180.651 146.672,170.489 152.078,157.604C164.775,127.337 196.538,132.17 205.71,133.371Z" style="fill:rgb(253,140,174);" />
        <path d="M343.638,276.229C342.816,277.804 341.968,279.394 341.092,281L340.94,281.278C336.157,282.862 331.195,285.508 326.13,289.431C325.692,289.77 325.253,290.119 324.813,290.478L324.635,288.955C324.377,286.757 324.109,284.552 323.831,282.341C332.081,266.629 341.081,242.929 354.74,191.976C368.502,140.637 354.263,97.36 337.872,65.822C333.492,57.394 328.895,53.722 324.279,53.346C321.059,53.084 317.62,54.361 313.94,57.247C304.508,64.644 292.648,83.539 275.009,108.139C272.238,103.248 269.347,98.609 266.334,94.254C284.455,68.405 297.773,53.131 308.124,44.821C319.476,35.708 326.757,35.443 333.035,38.914C334.876,39.933 338.994,44.525 343.937,52.464C356.205,72.166 372.435,111.874 369.641,171.345C368.685,191.708 369.757,226.144 343.638,276.229Z" style="fill:rgb(253,140,174);" />
        <path d="M319.036,287.442L319.369,290.257L319.701,293.147L319.916,295.071C318.129,297.171 316.182,299.99 314.09,303.269C313.449,304.273 312.795,305.321 312.127,306.405L311.231,307.864C310.072,309.761 308.869,311.752 307.621,313.795C307.387,312.269 307.149,310.746 306.906,309.227C306.649,307.614 306.386,306.006 306.118,304.4L305.917,303.205L305.617,301.44C293.541,230.917 271.833,167.732 254.966,129.21C245.377,107.311 237.16,93.278 233.158,89.969C220.875,79.81 198.253,79.316 175.076,86.94C143.224,97.416 110.463,122.932 102.99,157.092C97.994,179.932 104.151,206.742 129.67,235.577C176.487,288.477 179.31,285.515 224.057,305.747C235.796,311.055 262.518,331.022 282.996,346.936C281.829,348.151 280.58,349.376 279.167,350.673C278.117,351.637 276.977,352.641 275.714,353.711C271.805,351.392 268.009,349.097 264.315,346.831C237.711,330.503 216.434,315.614 196.725,303.359C156.033,278.058 121.931,263.853 62.284,270.899C39.666,273.571 20.915,296.225 22.079,322.047C22.936,341.055 34.544,361.898 63.811,377.264C92.214,392.176 137.565,402.001 206.249,399.72C215.266,399.42 218.789,399.376 223.334,398.837C222.164,400.724 221.036,402.782 219.996,405.044L219.601,405.924C217.534,406.282 215.487,406.618 213.443,406.927C193.235,409.977 173.282,410.344 137.564,402.922C124.816,400.273 76.946,395.334 43.784,374.344C22.354,360.779 7.173,340.37 12.692,309.139C19.097,272.899 43.153,261.03 66.849,258.424C91.25,255.74 115.278,262.644 120.396,263.48C121.524,263.665 122.646,263.121 123.2,262.121C123.754,261.121 123.62,259.881 122.865,259.022C85.223,216.2 70.388,207.268 78.436,164.4C79.94,156.387 87.026,109.11 163.516,68.85C183.668,58.243 201.531,56.219 217.327,60.914C233.619,65.757 247.655,77.635 259.738,94.256C260.856,95.794 261.957,97.372 263.042,98.989C265.986,103.379 268.809,108.054 271.516,112.978C272.471,114.716 273.411,116.485 274.338,118.283C274.744,119.071 275.147,119.865 275.547,120.664C276.487,122.54 277.412,124.447 278.321,126.382C279.182,128.213 280.028,130.069 280.861,131.949C281.96,134.43 283.036,136.953 284.089,139.515C284.857,141.385 285.613,143.277 286.357,145.188C288.279,150.126 290.12,155.197 291.881,160.378C292.462,162.086 293.034,163.805 293.597,165.536C294.932,169.638 296.219,173.803 297.459,178.022C297.971,179.764 298.475,181.515 298.971,183.275C302.292,195.057 305.257,207.218 307.885,219.546C308.802,223.847 309.678,228.167 310.514,232.5C312.148,240.972 313.629,249.488 314.964,257.982C315.412,260.838 315.844,263.691 316.26,266.539C316.977,271.454 317.646,276.355 318.267,281.227C318.532,283.304 318.789,285.376 319.036,287.442Z" style="fill:rgb(253,140,174);" />
        <path d="M351.433,304.009C349.824,304.993 347.995,305.78 346.015,306.242C342.816,306.987 339.22,306.884 335.514,305.392C335.305,305.308 334.403,304.967 333.581,304.376C333.343,304.206 333.108,304.014 332.923,303.789C332.871,303.725 332.772,303.685 332.779,303.599C332.814,303.192 333.224,302.844 333.825,302.329C334.644,301.625 335.796,300.886 337.356,300.096C338.073,299.733 338.876,299.359 339.772,298.973C341.012,298.438 342.185,297.959 343.294,297.531C349.618,295.091 353.842,294.344 356.471,294.79C357.163,294.907 357.683,295.032 357.913,295.415C358.114,295.75 358.005,296.174 357.874,296.627C357.217,298.896 355.238,301.358 352.517,303.293C352.168,303.541 351.806,303.78 351.433,304.009Z" style="fill:rgb(171,203,111);" />
        <path d="M236.599,422.331C237.122,420.46 237.822,418.652 238.668,416.906C242.252,409.51 248.47,403.245 255.09,398.116C255.551,397.759 256.015,397.425 256.467,397.118C257.102,396.685 257.711,396.305 258.251,395.986C258.03,396.63 257.747,397.338 257.417,398.098C257.03,398.989 256.58,399.95 256.093,400.958C252.284,408.854 245.932,419.047 244.303,422.116C244.206,422.299 244.126,422.456 244.064,422.587C243.651,423.454 242.951,425.56 242.159,427.841C241.222,430.541 240.157,433.486 239.291,434.912C238.781,435.751 238.316,436.267 237.73,436.184C236.613,436.028 235.827,434.684 235.681,433.314C235.268,429.44 235.635,425.779 236.599,422.331Z" style="fill:rgb(171,203,111);" />
        <path d="M347.842,285.157C349.804,286.413 351.848,287.786 353.912,289.304L353.265,289.352C349.622,289.677 344.508,291.037 337.629,294.002L337.389,294.106C335.632,293.203 333.893,292.404 332.211,291.698C333.663,290.709 335.102,289.836 336.527,289.072C339.288,287.592 341.994,286.524 344.632,285.828C345.714,285.543 346.784,285.32 347.842,285.157Z" style="fill:rgb(149,182,88);" />
        <path d="M365.3,353.276C366.306,343.843 366.209,331.427 361.721,319.528C360.078,315.169 357.801,311.371 355.133,308.065L355.655,307.704C359.507,304.964 362.143,301.346 363.074,298.133C363.148,297.876 363.211,297.622 363.263,297.372C367.218,301.436 370.876,306.266 373.744,312.103C378.19,321.152 380.695,332.61 379.505,347.353C376.003,350.367 371.31,352.457 365.3,353.276Z" style="fill:rgb(149,182,88);" />
        <path d="M328.516,353.868C327.577,349.23 326.106,345.09 323.876,341.232C320.451,335.306 315.216,330.012 307.218,324.632C307.765,323.786 308.306,322.94 308.839,322.096C310.406,319.613 311.913,317.15 313.357,314.778L315.765,310.825L315.915,310.582C321.039,313.74 325.899,317.508 329.865,322.948C334.731,329.621 338.208,338.786 339.299,352.312C335.848,352.415 332.666,352.837 329.71,353.557C329.308,353.655 328.91,353.759 328.516,353.868Z" style="fill:rgb(149,182,88);" />
        <path d="M299.953,379.557C299.293,375.894 298.267,372.559 296.828,369.47C294.087,363.585 289.851,358.549 283.715,353.862C285.024,352.634 286.197,351.462 287.302,350.293C288.153,349.394 288.964,348.497 289.766,347.577C290.143,347.145 290.518,346.708 290.894,346.264L291.562,345.47C292.144,344.772 292.734,344.053 293.344,343.304L295.212,340.998C303.75,347.744 306.778,358.054 307.772,368.02C306.508,369.555 305.288,371.191 304.1,372.921L303.492,373.82C302.68,375.036 301.883,376.299 301.098,377.606C300.714,378.246 300.332,378.896 299.953,379.557Z" style="fill:rgb(149,182,88);" />
        <path d="M277.484,426.962C275.334,417.439 271.268,406.304 263.564,396.961C263.885,395.92 264.087,395.01 264.147,394.273C264.21,393.508 264.147,392.853 264.005,392.319L263.736,391.585L263.271,390.842L262.589,390.188L261.761,389.731L260.744,389.482L259.379,389.535C258.784,389.639 258.026,389.9 257.095,390.358C253.779,387.521 249.982,384.996 245.631,382.925C251.929,378.44 257.231,374.624 261.744,371.319C278.742,381.292 283.569,396.084 284.79,411.127C282.513,416.186 280.106,421.478 277.484,426.962Z" style="fill:rgb(149,182,88);" />
        <path d="M241.584,463.226C241.246,457.549 240.009,451.642 236.995,445.807C235.852,443.593 234.453,441.385 232.748,439.201C233.939,440.471 235.439,441.329 236.978,441.545C239.285,441.869 241.913,441.022 243.917,437.722C244.576,436.639 245.354,434.716 246.113,432.665C251.206,439.502 255.134,447.468 257.915,456.782C253.409,460.595 248.893,462.584 244.566,463.102C243.556,463.223 242.561,463.262 241.584,463.226Z" style="fill:rgb(149,182,88);" />
        <path d="M222.871,412.653C226.156,414.502 229.236,416.502 232.111,418.668C230.445,423.386 229.72,428.465 230.298,433.888C230.465,435.453 231.044,436.91 231.883,438.127C228.871,434.502 224.986,430.954 219.99,427.572C220.412,421.843 221.455,416.922 222.871,412.653Z" style="fill:rgb(149,182,88);" />
        <path d="M385.214,339.664C385.14,327.549 382.548,317.746 378.602,309.716C373.211,298.744 365.241,291.069 357.548,285.339C358.292,285.485 359.026,285.661 359.749,285.865C360.258,286.009 360.762,286.167 361.261,286.338C362.214,286.664 363.147,287.04 364.06,287.461C364.661,287.739 365.254,288.036 365.838,288.352C366.792,288.869 367.722,289.435 368.626,290.048C374.992,294.361 380.075,300.936 383.396,308.216C388.143,318.627 389.355,330.579 385.214,339.664Z" style="fill:rgb(115,131,86);" />
        <path d="M344.732,352.402C343.58,337.271 339.613,327.128 334.239,319.758C329.83,313.711 324.443,309.514 318.76,305.999L319.179,305.343C319.715,304.507 320.238,303.707 320.75,302.95C321.286,302.158 321.808,301.413 322.318,300.722C323.452,299.185 324.525,297.916 325.541,296.993C326.121,296.467 326.7,295.959 327.276,295.47C328.67,295.978 330.127,296.557 331.618,297.215C330.668,297.875 329.936,298.505 329.38,299.095C328.006,300.552 327.49,301.934 327.386,303.134C327.216,305.096 328.145,306.805 329.57,308.088C331.065,309.435 333.083,310.249 333.493,310.414C339.556,312.854 345.394,312.457 350.267,310.593C352.869,313.683 355.086,317.272 356.656,321.438C360.962,332.855 360.896,344.782 359.841,353.658C357.06,353.686 354.052,353.482 350.808,353.023C348.7,352.724 346.677,352.518 344.732,352.402Z" style="fill:rgb(115,131,86);" />
        <path d="M312.481,362.977C310.878,353.171 307.128,343.433 298.663,336.727C299.115,336.157 299.563,335.579 300.008,334.996C300.59,334.231 301.166,333.455 301.736,332.671C302.303,331.89 302.864,331.101 303.418,330.305L304.232,329.126C311.364,333.912 316.107,338.607 319.189,343.94C321.258,347.519 322.57,351.37 323.381,355.694C319.628,357.347 316.274,359.575 313.201,362.32L312.481,362.977Z" style="fill:rgb(115,131,86);" />
        <path d="M288.985,401.798C286.563,388.935 280.612,376.781 266.471,367.827C270.345,364.937 273.536,362.479 276.236,360.303C277.452,359.323 278.569,358.4 279.604,357.52C285.388,361.771 289.391,366.325 291.921,371.756C294.11,376.454 295.197,381.774 295.442,388.045C294.817,389.299 294.194,390.58 293.569,391.888C293.129,392.808 292.688,393.742 292.246,394.688C291.383,396.532 290.515,398.425 289.635,400.363L288.985,401.798Z" style="fill:rgb(115,131,86);" />
        <path d="M262.272,452.502C258.958,442.395 254.304,433.837 248.294,426.559C248.554,425.849 248.779,425.276 248.952,424.912C250.029,422.647 256.659,412.11 260.716,403.829L261.258,402.7C269.019,413.194 272.218,425.708 273.547,434.999L272.649,436.773C269.302,443.343 265.811,448.528 262.272,452.502Z" style="fill:rgb(115,131,86);" />
        <path d="M219.787,434.084C225.733,438.614 229.664,443.41 232.186,448.292C234.585,452.935 235.713,457.632 236.13,462.198C227.152,459.093 220.655,449.471 219.984,439.258C219.866,437.472 219.802,435.748 219.787,434.084Z" style="fill:rgb(115,131,86);" />
        <path d="M240.483,386.582C245.004,388.402 248.923,390.733 252.32,393.42L251.775,393.837C244.797,399.243 238.362,405.844 234.347,413.547C231.38,411.397 228.217,409.405 224.858,407.555C225.302,406.57 225.765,405.626 226.242,404.719C227.618,402.106 229.11,399.807 230.611,397.753C232.393,395.316 234.188,393.225 235.816,391.367C237.021,389.991 238.135,388.742 239.085,387.575L239.091,387.569L240.483,386.582Z" style="fill:rgb(115,131,86);" />
        <path d="M320.558,258.968C327.158,246.39 340.214,219.983 344.401,200.028C345.852,193.115 346.228,186.929 345.096,182.227C344.221,178.588 342.464,175.756 339.767,173.903C333.374,169.511 327.228,172.7 322.133,180.508C317.562,187.511 313.727,198.352 310.88,208.214C308.773,199.063 306.478,190.037 303.985,181.221C308.454,178.864 313.605,174.756 319.212,167.825C321.793,164.635 328.464,159.248 333.148,147.932C337.817,136.653 340.556,119.434 335.012,92.477C333.778,86.474 331.072,83.549 327.895,82.557C324.844,81.605 320.964,82.469 316.707,85.01C305.92,91.449 291.666,108.952 282.007,121.535C281.472,120.426 280.932,119.328 280.387,118.239C279.564,116.598 278.73,114.979 277.884,113.385C295.888,88.327 307.784,68.954 317.281,61.506C319.651,59.647 321.766,58.573 323.84,58.742C325.27,58.858 326.609,59.609 327.967,60.913C329.685,62.562 331.354,65.017 333.069,68.319C348.955,98.885 362.849,140.816 349.511,190.574C337.968,233.637 329.784,257.03 322.554,272.628C321.93,268.09 321.265,263.533 320.558,258.968Z" style="fill:rgb(243,175,31);" />
        <path d="M302.655,321.733C301.679,323.241 300.679,324.748 299.657,326.236C299.134,326.997 298.605,327.754 298.07,328.503C297.532,329.257 296.989,330.003 296.438,330.741C273.56,319.93 278.06,285.603 250.372,264.806C250.038,264.518 249.678,263.928 249.456,264.131C245.393,268.362 252.324,271.972 282.794,329.46C283.931,331.605 285.1,333.825 286.303,336.122L288.607,340.539C287.967,341.318 287.346,342.065 286.727,342.792L286.61,342.929C265.775,326.762 238.289,306.242 226.287,300.815C182.402,280.972 179.638,283.87 133.723,231.989C109.709,204.855 103.576,179.742 108.278,158.249C115.353,125.908 146.612,102 176.767,92.082C197.88,85.137 218.519,84.887 229.708,94.14C233.489,97.267 240.948,110.692 250.007,131.381C267.202,170.651 289.467,235.745 301.233,308.031C301.671,310.722 302.095,313.423 302.503,316.133C302.741,317.714 302.974,319.298 303.201,320.885L302.655,321.733ZM259.556,249.984C261.778,252.886 264.728,259.922 267.923,268.036C272.933,280.763 278.406,296.077 282.234,303.374C283.653,306.077 285.039,307.809 286.039,308.444L287.114,308.929L288.069,309.058L288.945,308.938L289.752,308.597L290.255,308.231L290.771,307.652L291.358,306.395C291.628,305.473 291.764,303.803 291.653,301.496C291.132,290.608 285.695,262.628 277.447,235.604C270.152,211.705 260.585,188.596 250.443,178.382C245.339,173.243 239.979,171.189 234.711,172.763C227.369,174.957 223.168,178.337 221.179,182.359C219.153,186.455 219.335,191.383 221.354,196.932C226.595,211.334 244.758,230.651 259.556,249.984ZM209.767,106.27C188.006,101.869 170.313,105.018 156.661,112.459C133.603,125.024 122.002,149.928 121.855,172.276C121.756,187.459 126.95,201.427 137.181,209.772C148.112,218.688 164.934,221.41 187.647,211.811C192.817,209.626 196.32,204.326 199.141,197.913C202.764,189.677 205.275,179.509 210.811,174.171C232.152,153.591 237.483,135.436 232.751,123.179C229.464,114.665 221.378,108.618 209.767,106.27ZM263.914,306.994L264.12,306.087L264.15,305.195C264.122,304.69 264.017,304.152 263.822,303.581C263.426,302.423 262.58,301.031 261.299,299.404C254.44,290.692 233.516,272.687 222.36,232.674C219.208,221.372 208,215.574 196.898,215.564C185.689,215.554 174.866,221.436 172.595,232.683C172.197,234.658 172.694,237.269 174.234,240.295C176.099,243.964 179.525,248.476 184.014,253.408C200.883,271.936 232.982,296.828 249.633,305.893C254.354,308.463 258.047,309.734 260.035,309.667L261.583,309.377L262.663,308.775L263.427,307.965L263.914,306.994Z" style="fill:rgb(243,175,31);" />
        <path d="M261.333,364.905C259.793,366.044 258.149,367.25 256.39,368.531C251.709,371.938 246.211,375.877 239.69,380.509L235.649,383.375C235.442,383.522 235.256,383.697 235.098,383.896L234.532,384.592C232.619,386.904 230.157,389.527 227.615,392.757C219.968,393.975 217.735,393.922 206.069,394.309C138.699,396.548 94.187,387.098 66.327,372.471C39.331,358.297 28.278,339.336 27.487,321.803C26.454,298.905 42.862,278.644 62.919,276.275C121.022,269.411 154.228,283.309 193.867,307.956C215.944,321.684 239.987,338.705 271.252,357.354C268.5,359.535 265.254,362.004 261.333,364.905ZM232.137,376.706C233.534,376.728 234.718,375.683 234.87,374.294C235.022,372.905 234.092,371.629 232.723,371.348C197.095,364.041 182.86,352.48 171.726,342.661C159.907,332.237 151.338,323.756 126.627,323.514C102.06,323.273 75.314,310.611 57.916,306.92C49.86,305.211 43.573,305.554 39.842,308.719C37.189,310.969 35.545,314.671 35.619,320.476C35.667,324.267 38.356,328.285 43.625,332.049C50.327,336.837 61.367,341.581 74.905,346.042C126.565,363.069 215.043,376.437 232.137,376.706ZM251.783,361.732C252.787,360.647 252.735,358.958 251.666,357.937C232.648,339.771 191.687,316.026 178.525,307.962C152.076,291.759 114.192,282.467 88.107,280.339C76.586,279.399 67.304,279.896 62.138,281.675C58.451,282.945 56.532,285.04 56.123,287.29C55.832,288.888 56.216,290.776 57.744,292.841C70.611,310.232 91,314.68 110.501,316.368C121.684,317.335 132.533,317.41 141.275,318.791C146.609,319.633 151.117,320.918 154.257,323.406C192.239,353.495 216.138,363.191 230.481,365.475C246.457,368.019 251.783,361.732 251.783,361.732ZM213.003,387.777C213.849,387.288 214.366,386.381 214.355,385.404C214.344,384.427 213.808,383.531 212.951,383.061C211.961,382.518 208.637,381.636 203.614,380.662C185.233,377.098 142.288,370.948 114.398,366.745C104.962,365.323 89.208,359.388 76.149,354.744C67.028,351.501 59.15,348.901 55.35,348.616C54.196,348.53 53.285,348.64 52.638,348.851L51.389,349.516L50.623,350.372L50.22,351.282L50.089,352.196L50.192,353.148L50.61,354.302C51.388,355.891 53.79,358.587 58.452,362.516C77.026,378.167 87.58,382.199 141.541,389.213C157.798,391.326 180.894,392.784 196.747,391.475C203.984,390.878 209.781,389.639 213.003,387.777Z" style="fill:rgb(243,175,31);" />
    </g>
    <g id="Simple-Detailed-Butterfly-Outline" transform="matrix(3.66123,0,0,3.66123,-4999.15,-2980.25)">
        <path d="M1424.11,929.912C1424.25,928.628 1424.49,927.49 1424.81,926.475C1418.85,927.452 1413.21,927.686 1402.7,925.502C1399.15,924.765 1385.84,923.344 1376.6,917.498C1370.26,913.484 1365.81,907.424 1367.44,898.182C1369.34,887.418 1376.49,883.892 1383.53,883.118C1388.56,882.564 1393.54,883.451 1396.4,884.052C1386.77,873.236 1383.21,870.286 1385.4,858.634C1385.83,856.365 1387.75,842.9 1409.4,831.501C1415.32,828.386 1420.57,827.846 1425.21,829.224C1429.81,830.589 1433.81,833.865 1437.26,838.478C1442.18,831.504 1445.83,827.367 1448.66,825.093C1452.49,822.023 1454.99,822.169 1457.11,823.339C1457.69,823.66 1459.07,825.047 1460.63,827.552C1464.07,833.076 1468.65,844.2 1467.87,860.873C1467.6,866.563 1467.91,876.203 1460.56,890.231L1460.47,890.391C1460.57,890.379 1460.67,890.368 1460.76,890.359C1461.43,890.296 1462.08,890.307 1462.7,890.382L1462.88,890.406C1463.19,890.449 1463.5,890.508 1463.8,890.583C1468.29,886.608 1474.28,881.676 1490.23,869.951C1499.21,863.343 1500.74,866.359 1500.24,867.03C1499.31,868.294 1495.52,867.309 1493.15,869.146C1490.86,870.916 1479.65,878.526 1466.55,890.032C1466.15,890.388 1465.74,890.748 1465.33,891.111C1465.43,891.153 1465.52,891.196 1465.61,891.241C1466.05,891.055 1466.49,890.863 1466.95,890.666C1471.74,888.624 1478.22,886.004 1487.7,882.345C1498.11,878.33 1498.79,881.642 1498.13,882.159C1496.9,883.133 1493.5,881.187 1490.73,882.336C1488.5,883.263 1479.14,886.498 1466.97,892.024C1467.2,892.183 1467.42,892.351 1467.65,892.528C1469.28,893.833 1470.6,895.612 1471.49,897.574C1473.18,901.267 1473.33,905.575 1471.37,908.511C1471.12,908.886 1470.83,909.241 1470.51,909.571C1470.04,910.053 1469.49,910.482 1468.86,910.842C1467.81,911.442 1466.53,911.852 1465,912.009C1464.52,912.057 1464.02,912.081 1463.49,912.078C1462.73,912.074 1461.91,912.013 1461.04,911.89C1460.57,911.822 1460.11,911.774 1459.67,911.745C1459.15,911.711 1458.66,911.702 1458.19,911.718C1457.22,911.751 1456.34,911.887 1455.54,912.118L1455.39,912.161C1454.93,912.301 1454.49,912.473 1454.08,912.675L1453.97,912.727C1452.85,913.289 1451.88,914.071 1451,915.045C1450.51,915.586 1450.05,916.186 1449.61,916.84L1449.55,916.927L1449.47,917.06C1449.14,917.554 1448.83,918.076 1448.52,918.624L1448.43,918.77C1448.15,919.267 1447.88,919.786 1447.61,920.324L1447.38,920.764C1447.24,921.059 1447.09,921.36 1446.94,921.666C1446.7,922.165 1446.46,922.679 1446.22,923.207L1445.98,923.743C1445.57,924.647 1445.15,925.589 1444.71,926.565C1444.27,927.554 1443.8,928.578 1443.32,929.631C1442.8,930.754 1442.25,931.911 1441.66,933.096C1441.51,933.386 1441.37,933.678 1441.22,933.972C1440.94,934.506 1440.67,935.01 1440.39,935.483C1439.47,937.036 1438.51,938.268 1437.54,939.223C1437.13,939.636 1436.71,939.997 1436.29,940.31C1434.97,941.299 1433.65,941.811 1432.41,941.96C1432.08,941.999 1431.76,942.013 1431.44,942.004C1430.94,941.99 1430.45,941.919 1429.98,941.796C1426.72,940.948 1424.28,937.66 1424.04,934.076C1423.98,933.187 1423.97,932.35 1423.99,931.562C1424.01,930.987 1424.05,930.437 1424.11,929.912ZM1459.29,889.451C1466.42,875.771 1466.13,866.365 1466.39,860.804C1467.15,844.56 1462.72,833.715 1459.37,828.333C1458.02,826.165 1456.9,824.911 1456.39,824.632C1454.68,823.684 1452.69,823.757 1449.59,826.246C1446.76,828.516 1443.12,832.688 1438.18,839.747C1439,840.937 1439.79,842.204 1440.55,843.54C1445.36,836.821 1448.6,831.66 1451.18,829.64C1452.18,828.852 1453.12,828.503 1454,828.574C1455.26,828.677 1456.52,829.68 1457.71,831.982C1462.19,840.596 1466.08,852.416 1462.32,866.438C1458.59,880.356 1456.13,886.829 1453.88,891.12C1453.96,891.724 1454.03,892.326 1454.1,892.927L1454.15,893.343C1454.27,893.245 1454.39,893.149 1454.51,893.057C1455.89,891.985 1457.25,891.263 1458.55,890.83L1458.59,890.754C1458.83,890.315 1459.07,889.881 1459.29,889.451ZM1452.57,892.513C1452.5,891.949 1452.43,891.383 1452.36,890.816C1452.19,889.485 1452.01,888.147 1451.81,886.804C1451.7,886.026 1451.58,885.247 1451.46,884.467C1451.09,882.147 1450.69,879.821 1450.24,877.507C1450.01,876.324 1449.78,875.144 1449.52,873.969C1448.81,870.602 1448,867.28 1447.09,864.062C1446.95,863.582 1446.82,863.103 1446.68,862.627C1446.34,861.475 1445.99,860.337 1445.62,859.217C1445.47,858.744 1445.31,858.275 1445.15,857.808C1444.67,856.393 1444.17,855.008 1443.64,853.659C1443.44,853.137 1443.24,852.621 1443.03,852.11C1442.74,851.41 1442.44,850.721 1442.14,850.043C1441.92,849.53 1441.68,849.023 1441.45,848.523C1441.2,847.994 1440.95,847.473 1440.69,846.961C1440.58,846.743 1440.47,846.526 1440.36,846.311C1440.11,845.82 1439.85,845.336 1439.59,844.862C1438.85,843.517 1438.08,842.24 1437.28,841.041C1436.98,840.599 1436.68,840.168 1436.37,839.748C1433.07,835.208 1429.24,831.964 1424.79,830.641C1420.48,829.359 1415.6,829.912 1410.09,832.809C1389.2,843.805 1387.27,856.718 1386.85,858.907C1384.66,870.615 1388.71,873.055 1398.99,884.751C1399.2,884.986 1399.23,885.324 1399.08,885.597C1398.93,885.871 1398.62,886.019 1398.32,885.969C1396.92,885.74 1390.36,883.855 1383.69,884.588C1377.22,885.299 1370.65,888.541 1368.9,898.44C1367.39,906.97 1371.54,912.544 1377.39,916.249C1386.45,921.982 1399.52,923.331 1403,924.055C1412.76,926.082 1418.21,925.982 1423.73,925.149C1424.29,925.064 1424.85,924.973 1425.41,924.875L1425.52,924.634C1425.8,924.017 1426.11,923.454 1426.43,922.939C1425.19,923.086 1424.23,923.098 1421.76,923.18C1403.01,923.803 1390.62,921.12 1382.86,917.047C1374.87,912.85 1371.7,907.157 1371.46,901.965C1371.14,894.912 1376.27,888.725 1382.44,887.995C1398.73,886.071 1408.05,889.95 1419.16,896.861C1424.55,900.208 1430.36,904.275 1437.62,908.734C1438.63,909.354 1439.67,909.98 1440.74,910.614C1441.08,910.321 1441.39,910.047 1441.68,909.784C1442.07,909.43 1442.41,909.095 1442.73,908.763C1437.13,904.417 1429.84,898.963 1426.63,897.513C1414.41,891.987 1413.63,892.796 1400.85,878.347C1393.88,870.472 1392.2,863.149 1393.56,856.911C1395.6,847.581 1404.55,840.611 1413.25,837.75C1419.58,835.668 1425.76,835.803 1429.11,838.577C1430.21,839.481 1432.45,843.314 1435.07,849.295C1439.68,859.817 1445.61,877.075 1448.9,896.337L1448.99,896.819L1449.04,897.145C1449.12,897.584 1449.19,898.023 1449.26,898.464C1449.32,898.879 1449.39,899.295 1449.45,899.711C1449.79,899.153 1450.12,898.609 1450.44,898.091L1450.68,897.693C1450.87,897.397 1451.04,897.111 1451.22,896.836C1451.79,895.941 1452.32,895.171 1452.81,894.597L1452.75,894.072L1452.66,893.282L1452.57,892.513ZM1426.3,926.713C1425.92,927.879 1425.63,929.223 1425.52,930.788C1426.88,931.711 1427.94,932.68 1428.77,933.67C1428.54,933.338 1428.38,932.94 1428.33,932.513C1428.17,931.031 1428.37,929.644 1428.83,928.356C1428.04,927.764 1427.2,927.218 1426.3,926.713ZM1470.64,906.777C1471.78,904.296 1471.45,901.031 1470.15,898.188C1469.24,896.199 1467.85,894.403 1466.12,893.225C1465.87,893.058 1465.61,892.903 1465.35,892.762C1465.19,892.676 1465.03,892.594 1464.87,892.519C1464.62,892.404 1464.36,892.301 1464.1,892.212C1463.97,892.165 1463.83,892.122 1463.69,892.083C1463.49,892.027 1463.29,891.979 1463.09,891.939C1465.19,893.504 1467.37,895.6 1468.84,898.597C1469.92,900.791 1470.62,903.468 1470.64,906.777ZM1465.21,910.495C1466.85,910.271 1468.13,909.7 1469.09,908.877C1469.41,904.85 1468.73,901.721 1467.51,899.249C1466.73,897.655 1465.73,896.336 1464.65,895.226C1464.64,895.294 1464.62,895.363 1464.6,895.433C1464.34,896.311 1463.62,897.299 1462.57,898.048L1462.43,898.146C1463.16,899.049 1463.78,900.087 1464.23,901.277C1465.45,904.527 1465.48,907.918 1465.21,910.495ZM1459.59,910.256C1460.12,910.288 1460.67,910.344 1461.25,910.426C1462.13,910.551 1462.96,910.607 1463.71,910.599C1464,908.175 1464.02,904.917 1462.85,901.799C1462.42,900.661 1461.81,899.681 1461.1,898.837C1459.77,899.346 1458.17,899.454 1456.52,898.788C1456.41,898.743 1455.86,898.521 1455.45,898.153C1455.06,897.802 1454.81,897.335 1454.85,896.799C1454.88,896.472 1455.02,896.094 1455.39,895.696C1455.55,895.535 1455.75,895.363 1456.01,895.183C1455.6,895.003 1455.2,894.845 1454.82,894.706C1454.66,894.84 1454.51,894.978 1454.35,895.122C1454.07,895.374 1453.78,895.721 1453.47,896.141C1453.33,896.329 1453.18,896.533 1453.04,896.749C1452.9,896.956 1452.76,897.174 1452.61,897.403L1452.5,897.582C1454.05,898.542 1455.52,899.688 1456.72,901.34C1458.19,903.353 1459.27,906.123 1459.59,910.256ZM1455.16,910.657C1455.27,910.627 1455.38,910.599 1455.49,910.572C1456.29,910.375 1457.16,910.26 1458.11,910.231C1457.81,906.537 1456.86,904.034 1455.53,902.211C1454.44,900.726 1453.12,899.696 1451.72,898.834L1451.68,898.9L1451.02,899.98C1450.62,900.628 1450.21,901.3 1449.79,901.978C1449.64,902.209 1449.49,902.44 1449.34,902.671C1451.53,904.141 1452.96,905.587 1453.89,907.205C1454.5,908.259 1454.9,909.39 1455.16,910.657ZM1450.78,913.145L1450.98,912.965C1451.82,912.215 1452.73,911.607 1453.76,911.155C1453.54,909.974 1453.18,908.922 1452.61,907.945C1451.77,906.488 1450.48,905.206 1448.53,903.899L1448.3,904.221C1448.15,904.438 1448,904.654 1447.85,904.867C1447.69,905.081 1447.53,905.293 1447.37,905.502C1447.25,905.661 1447.13,905.819 1447.01,905.975C1449.32,907.807 1450.34,910.466 1450.78,913.145ZM1447.36,917.673C1447.46,917.493 1447.57,917.315 1447.67,917.14C1447.88,916.783 1448.1,916.438 1448.33,916.106L1448.49,915.861C1448.82,915.388 1449.15,914.941 1449.49,914.522C1449.22,911.8 1448.39,908.984 1446.06,907.141L1445.55,907.771C1445.39,907.976 1445.23,908.172 1445.07,908.363L1444.88,908.58C1444.78,908.701 1444.68,908.82 1444.58,908.938C1444.36,909.19 1444.13,909.435 1443.9,909.68C1443.6,909.999 1443.28,910.319 1442.92,910.655C1444.6,911.935 1445.76,913.311 1446.5,914.918C1446.9,915.762 1447.18,916.673 1447.36,917.673ZM1444.36,923.748L1444.54,923.356C1444.78,922.827 1445.02,922.31 1445.25,921.806C1445.37,921.547 1445.49,921.292 1445.61,921.041C1445.79,920.684 1445.95,920.334 1446.13,919.991C1446.06,918.279 1445.76,916.826 1445.16,915.542C1444.47,914.059 1443.38,912.815 1441.8,911.654C1441.52,911.894 1441.21,912.147 1440.88,912.414C1440.14,913.009 1439.27,913.68 1438.21,914.469C1442.08,916.915 1443.7,920.234 1444.36,923.748ZM1441.22,930.621C1441.94,929.123 1442.6,927.678 1443.22,926.296C1442.88,922.187 1441.57,918.147 1436.92,915.423C1435.69,916.326 1434.24,917.368 1432.52,918.593C1433.71,919.159 1434.75,919.848 1435.65,920.623C1435.91,920.498 1436.11,920.427 1436.28,920.398L1436.65,920.384L1436.93,920.452L1437.15,920.577L1437.34,920.755L1437.47,920.958L1437.54,921.159C1437.58,921.305 1437.6,921.484 1437.58,921.692C1437.56,921.894 1437.51,922.142 1437.42,922.427C1439.52,924.978 1440.63,928.02 1441.22,930.621ZM1437.07,937.597C1438.03,936.511 1438.99,935.095 1439.9,933.301L1440.15,932.816C1439.78,930.278 1438.91,926.86 1436.79,923.994L1436.64,924.303C1435.53,926.564 1433.72,929.442 1433.43,930.061C1433.38,930.16 1433.32,930.317 1433.25,930.511C1434.89,932.499 1436.16,934.836 1437.07,937.597ZM1431.42,940.526C1431.68,940.536 1431.95,940.525 1432.23,940.492C1433.41,940.35 1434.64,939.807 1435.88,938.766C1435.12,936.222 1434.04,934.046 1432.65,932.179C1432.44,932.739 1432.23,933.264 1432.05,933.56C1431.51,934.461 1430.79,934.692 1430.16,934.604C1429.74,934.545 1429.33,934.311 1429,933.964C1429.47,934.56 1429.85,935.163 1430.16,935.768C1430.99,937.362 1431.32,938.975 1431.42,940.526ZM1425.46,932.566C1425.47,933.021 1425.48,933.492 1425.52,933.979C1425.7,936.769 1427.47,939.397 1429.93,940.245C1429.81,938.998 1429.5,937.715 1428.85,936.447C1428.16,935.113 1427.09,933.803 1425.46,932.566ZM1460.44,891.889C1460.15,891.934 1459.86,891.995 1459.56,892.073C1458.84,892.263 1458.1,892.554 1457.35,892.959C1456.96,893.167 1456.57,893.406 1456.17,893.676C1456.63,893.869 1457.1,894.087 1457.58,894.334L1457.65,894.305C1459.53,893.495 1460.92,893.124 1461.92,893.035L1462.1,893.022C1461.53,892.607 1460.97,892.233 1460.44,891.889ZM1436.81,913.671C1437.88,912.879 1438.77,912.204 1439.52,911.609C1430.98,906.515 1424.41,901.866 1418.38,898.117C1407.56,891.385 1398.49,887.589 1382.62,889.463C1377.14,890.11 1372.66,895.644 1372.94,901.899C1373.15,906.687 1376.17,911.866 1383.55,915.738C1391.16,919.733 1403.31,922.314 1421.71,921.702C1424.9,921.597 1425.51,921.611 1427.6,921.278C1428.29,920.396 1428.97,919.68 1429.49,919.048L1429.64,918.858C1429.69,918.804 1429.74,918.756 1429.79,918.716L1430.9,917.933C1432.68,916.668 1434.18,915.592 1435.46,914.661C1435.94,914.312 1436.39,913.982 1436.81,913.671ZM1431.12,919.592L1430.74,919.861L1430.73,919.863C1430.47,920.182 1430.17,920.523 1429.84,920.899C1429.39,921.406 1428.9,921.977 1428.42,922.643C1428.01,923.204 1427.6,923.832 1427.23,924.546C1427.1,924.793 1426.97,925.051 1426.85,925.32C1427.77,925.825 1428.63,926.37 1429.44,926.957C1430.54,924.853 1432.29,923.05 1434.2,921.573L1434.35,921.459C1433.42,920.726 1432.35,920.089 1431.12,919.592ZM1448.1,901.879L1448.25,901.648C1448.18,901.214 1448.12,900.782 1448.05,900.35C1447.94,899.61 1447.83,898.872 1447.71,898.137C1444.49,878.393 1438.41,860.614 1433.72,849.888C1431.24,844.237 1429.2,840.57 1428.17,839.716C1425.12,837.189 1419.48,837.258 1413.71,839.154C1405.48,841.863 1396.94,848.393 1395.01,857.227C1393.72,863.097 1395.4,869.956 1401.95,877.367C1414.5,891.538 1415.25,890.746 1427.24,896.166C1430.52,897.648 1438.02,903.253 1443.71,907.669L1443.75,907.631C1443.91,907.433 1444.08,907.229 1444.26,907.016L1443.63,905.81C1443.3,905.182 1442.98,904.576 1442.67,903.99C1434.35,888.288 1432.46,887.302 1433.57,886.146C1433.63,886.091 1433.73,886.252 1433.82,886.331C1441.38,892.011 1440.15,901.387 1446.4,904.34C1446.55,904.138 1446.7,903.934 1446.84,903.729C1446.99,903.524 1447.13,903.317 1447.28,903.11C1447.56,902.703 1447.83,902.291 1448.1,901.879ZM1430.05,929.356C1429.79,930.298 1429.69,931.298 1429.8,932.356C1429.84,932.73 1430.06,933.097 1430.36,933.14C1430.52,933.162 1430.65,933.021 1430.79,932.792C1431.03,932.403 1431.32,931.598 1431.57,930.861C1431.79,930.238 1431.98,929.663 1432.09,929.426C1432.11,929.39 1432.13,929.347 1432.16,929.297C1432.6,928.459 1434.34,925.675 1435.38,923.518C1435.51,923.243 1435.63,922.98 1435.74,922.737C1435.83,922.53 1435.91,922.336 1435.97,922.16C1435.82,922.248 1435.65,922.351 1435.48,922.469C1435.36,922.553 1435.23,922.645 1435.1,922.742C1433.3,924.143 1431.6,925.854 1430.62,927.874C1430.39,928.351 1430.2,928.845 1430.05,929.356ZM1461.42,897.038C1461.52,896.976 1461.62,896.911 1461.71,896.843C1462.46,896.314 1463,895.642 1463.18,895.022C1463.21,894.898 1463.24,894.783 1463.19,894.691C1463.13,894.587 1462.98,894.552 1462.8,894.52C1462.08,894.399 1460.92,894.603 1459.2,895.269C1458.89,895.386 1458.57,895.517 1458.23,895.663C1457.99,895.768 1457.77,895.871 1457.57,895.97C1457.15,896.186 1456.83,896.387 1456.61,896.58C1456.44,896.72 1456.33,896.815 1456.32,896.927C1456.32,896.95 1456.35,896.961 1456.36,896.978C1456.41,897.04 1456.48,897.092 1456.54,897.139C1456.77,897.3 1457.01,897.393 1457.07,897.416C1458.08,897.824 1459.07,897.852 1459.94,897.648C1460.48,897.522 1460.98,897.307 1461.42,897.038ZM1452.99,884.736C1453.18,885.983 1453.36,887.228 1453.53,888.467C1455.51,884.207 1457.74,877.818 1460.89,866.056C1464.54,852.465 1460.74,841.013 1456.4,832.664C1455.93,831.762 1455.48,831.091 1455.01,830.641C1454.64,830.285 1454.27,830.08 1453.88,830.048C1453.32,830.002 1452.74,830.295 1452.09,830.803C1449.5,832.837 1446.25,838.129 1441.33,844.973C1441.56,845.408 1441.79,845.85 1442.01,846.299C1442.16,846.596 1442.31,846.896 1442.46,847.199C1445.09,843.762 1448.99,838.981 1451.93,837.223C1453.1,836.529 1454.16,836.293 1454.99,836.553C1455.86,836.824 1456.6,837.623 1456.93,839.262C1458.45,846.625 1457.7,851.328 1456.42,854.409C1455.14,857.5 1453.32,858.971 1452.62,859.842C1451.09,861.735 1449.68,862.857 1448.46,863.501C1449.14,865.909 1449.77,868.374 1450.34,870.874C1451.12,868.18 1452.17,865.219 1453.42,863.306C1454.81,861.174 1456.49,860.303 1458.23,861.502C1458.97,862.008 1459.45,862.782 1459.69,863.776C1460,865.06 1459.89,866.75 1459.5,868.638C1458.36,874.088 1454.79,881.301 1452.99,884.736ZM1451.03,873.994C1451.61,876.738 1452.13,879.509 1452.59,882.28C1454.45,878.587 1457.11,872.845 1458.05,868.334C1458.34,866.956 1458.47,865.699 1458.35,864.667C1458.24,863.808 1457.97,863.118 1457.39,862.721C1456.35,862.004 1455.49,862.839 1454.65,864.114C1453.03,866.604 1451.77,870.946 1451.03,873.994ZM1446.96,858.571C1447.33,859.709 1447.69,860.865 1448.04,862.036C1449.04,861.459 1450.19,860.488 1451.47,858.912C1452.13,858.097 1453.86,856.737 1455.06,853.843C1456.26,850.939 1456.91,846.502 1455.49,839.56C1455.3,838.65 1455.03,838.114 1454.55,837.964C1454.04,837.804 1453.41,838.064 1452.69,838.492C1449.69,840.283 1445.71,845.314 1443.16,848.691C1443.48,849.401 1443.8,850.125 1444.11,850.86C1445.82,848.89 1447.25,847.337 1448.42,846.205C1449.68,844.996 1450.68,844.252 1451.44,843.947C1452.19,843.649 1452.79,843.708 1453.26,844.005C1453.83,844.364 1454.29,845.221 1454.45,846.673C1454.94,851.097 1452.77,854.244 1450.31,856.335C1449.17,857.303 1447.97,858.04 1446.96,858.571ZM1444.73,852.392C1445.35,853.932 1445.93,855.521 1446.49,857.15C1447.37,856.672 1448.38,856.03 1449.35,855.209C1451.49,853.393 1453.4,850.676 1452.98,846.836C1452.92,846.328 1452.84,845.919 1452.71,845.61C1452.64,845.443 1452.58,845.311 1452.46,845.251C1452.38,845.204 1452.27,845.23 1452.14,845.268C1451.86,845.351 1451.53,845.537 1451.15,845.807C1449.69,846.851 1447.61,849.058 1444.73,852.392ZM1428.84,916.894C1424.17,916.821 1400,913.17 1385.89,908.519C1382.19,907.301 1379.18,906.005 1377.35,904.697C1375.91,903.669 1375.17,902.572 1375.16,901.536C1375.14,899.951 1375.59,898.94 1376.31,898.325C1377.33,897.46 1379.05,897.367 1381.25,897.833C1386,898.842 1393.31,902.3 1400.02,902.366C1406.77,902.432 1409.11,904.748 1412.34,907.595C1415.38,910.277 1419.26,913.435 1429,915.431C1429.37,915.508 1429.62,915.856 1429.58,916.236C1429.54,916.615 1429.22,916.9 1428.84,916.894ZM1420.49,914.491C1416,912.681 1413.48,910.578 1411.36,908.704C1408.38,906.077 1406.23,903.905 1400,903.844C1393.19,903.778 1385.77,900.303 1380.94,899.28C1380.06,899.092 1379.27,898.99 1378.6,899.026C1378.06,899.056 1377.6,899.171 1377.27,899.452C1376.81,899.841 1376.62,900.514 1376.64,901.517C1376.64,901.804 1376.77,902.085 1376.99,902.372C1377.27,902.749 1377.68,903.12 1378.21,903.494C1379.95,904.74 1382.83,905.954 1386.35,907.115C1396.2,910.361 1411,913.12 1420.49,914.491ZM1423.61,919.918C1422.73,920.427 1421.15,920.765 1419.17,920.928C1414.84,921.286 1408.53,920.888 1404.09,920.31C1389.35,918.395 1386.47,917.293 1381.4,913.019C1380.12,911.946 1379.47,911.209 1379.25,910.775L1379.14,910.46L1379.11,910.2L1379.15,909.95L1379.26,909.702L1379.47,909.468L1379.81,909.286C1379.99,909.229 1380.23,909.198 1380.55,909.222C1381.59,909.3 1383.74,910.01 1386.23,910.896C1389.8,912.164 1394.1,913.785 1396.68,914.174C1404.29,915.322 1416.02,917.001 1421.05,917.975C1422.42,918.241 1423.33,918.482 1423.6,918.63C1423.83,918.759 1423.98,919.003 1423.98,919.27C1423.98,919.537 1423.84,919.785 1423.61,919.918ZM1381.23,910.836C1381.53,911.145 1381.91,911.52 1382.35,911.888C1387.25,916.014 1390.06,916.995 1404.28,918.844C1408.63,919.409 1414.81,919.805 1419.05,919.455C1419.47,919.42 1419.88,919.379 1420.26,919.33C1415,918.347 1403.81,916.744 1396.46,915.636C1393.32,915.163 1387.67,912.923 1383.78,911.608C1382.78,911.271 1381.91,910.997 1381.23,910.836ZM1434.2,912.804C1434.2,912.804 1432.75,914.522 1428.38,913.827C1424.46,913.203 1417.94,910.555 1407.56,902.336C1406.71,901.657 1405.48,901.306 1404.02,901.076C1401.63,900.699 1398.67,900.678 1395.61,900.414C1390.29,899.953 1384.72,898.738 1381.2,893.988C1380.79,893.424 1380.68,892.909 1380.76,892.472C1380.87,891.857 1381.4,891.285 1382.4,890.938C1383.81,890.452 1386.35,890.317 1389.5,890.573C1396.62,891.155 1406.97,893.692 1414.19,898.118C1417.79,900.321 1428.98,906.806 1434.17,911.768C1434.46,912.047 1434.48,912.508 1434.2,912.804ZM1432.43,912.178C1427.06,907.382 1416.81,901.457 1413.42,899.379C1404.64,894.003 1391.13,891.496 1384.91,891.979C1383.94,892.054 1383.16,892.199 1382.63,892.435C1382.43,892.527 1382.26,892.594 1382.22,892.733C1382.18,892.847 1382.28,892.956 1382.39,893.109C1386.31,898.401 1393.03,898.817 1398.74,899.147C1401.15,899.285 1403.39,899.4 1405.22,899.795C1406.54,900.081 1407.65,900.517 1408.48,901.177C1418.53,909.138 1424.82,911.762 1428.62,912.367C1430.56,912.677 1431.77,912.435 1432.43,912.178ZM1436.32,882.282C1432.28,877.002 1427.32,871.726 1425.89,867.792C1425.34,866.277 1425.29,864.931 1425.84,863.812C1426.39,862.713 1427.53,861.79 1429.54,861.191C1430.98,860.761 1432.44,861.322 1433.84,862.726C1436.61,865.516 1439.22,871.827 1441.21,878.355C1443.46,885.736 1444.95,893.378 1445.09,896.352C1445.12,896.982 1445.08,897.438 1445.01,897.69L1444.85,898.033L1444.71,898.192L1444.57,898.292L1444.35,898.385L1444.11,898.418L1443.85,898.382L1443.56,898.25C1443.29,898.076 1442.91,897.603 1442.52,896.865C1441.47,894.872 1439.98,890.689 1438.61,887.213C1437.74,884.997 1436.93,883.075 1436.32,882.282ZM1443.56,895.631C1443.23,892.302 1441.83,885.437 1439.8,878.787C1438.15,873.394 1436.1,868.138 1433.86,865.054C1433.17,864.103 1432.47,863.365 1431.75,862.929C1431.16,862.569 1430.56,862.428 1429.96,862.608C1428.48,863.052 1427.57,863.653 1427.17,864.467C1426.78,865.26 1426.89,866.212 1427.28,867.287C1428.67,871.122 1433.56,876.235 1437.5,881.384C1439.01,883.351 1441.79,891.927 1443.56,895.631ZM1437.51,897.854L1437.38,898.119L1437.17,898.34L1436.88,898.505L1436.45,898.584C1435.91,898.602 1434.9,898.255 1433.61,897.553C1429.07,895.077 1420.3,888.278 1415.69,883.218C1414.46,881.871 1413.53,880.638 1413.02,879.636C1412.6,878.809 1412.46,878.096 1412.57,877.557C1413.19,874.485 1416.15,872.878 1419.21,872.881C1422.24,872.884 1425.3,874.468 1426.16,877.555C1429.21,888.483 1434.93,893.401 1436.8,895.781C1437.15,896.225 1437.38,896.605 1437.49,896.922C1437.54,897.077 1437.57,897.225 1437.58,897.362L1437.57,897.606L1437.51,897.854ZM1435.8,896.903C1435.55,896.565 1435.2,896.169 1434.79,895.697C1432.33,892.928 1427.49,887.807 1424.74,877.952C1424.06,875.522 1421.6,874.362 1419.21,874.36C1416.85,874.358 1414.5,875.484 1414.02,877.85C1413.96,878.144 1414.11,878.515 1414.34,878.966C1414.8,879.88 1415.67,880.994 1416.79,882.222C1421.29,887.175 1429.87,893.831 1434.32,896.254C1434.83,896.532 1435.39,896.755 1435.8,896.903ZM1422.73,843.029C1425.9,843.671 1428.11,845.322 1429,847.648C1430.3,850.996 1428.84,855.954 1423.01,861.575C1421.5,863.034 1420.81,865.811 1419.82,868.06C1419.05,869.812 1418.1,871.259 1416.68,871.856C1410.48,874.478 1405.88,873.734 1402.9,871.299C1400.11,869.02 1398.69,865.205 1398.71,861.058C1398.75,854.954 1401.92,848.152 1408.22,844.72C1411.95,842.688 1416.78,841.827 1422.73,843.029ZM1422.43,844.479C1416.9,843.36 1412.4,844.127 1408.93,846.018C1403.13,849.178 1400.23,855.448 1400.19,861.068C1400.17,864.737 1401.36,868.137 1403.83,870.154C1406.49,872.321 1410.59,872.828 1416.11,870.494C1416.76,870.218 1417.25,869.67 1417.68,868.992C1418.17,868.214 1418.57,867.268 1418.95,866.288C1419.8,864.133 1420.61,861.838 1421.98,860.511C1424.65,857.937 1426.36,855.536 1427.25,853.389C1428.08,851.379 1428.18,849.615 1427.62,848.18C1426.89,846.278 1425.03,845.003 1422.43,844.479ZM1421.81,848.966C1423.75,849.22 1425.43,851.036 1425.37,852.987C1425.33,854.258 1424.59,855.639 1422.6,856.636C1419.67,858.104 1418.31,858.562 1417.32,859.806C1416.66,860.634 1416.16,861.8 1415.43,863.801C1414.5,866.331 1412.82,867.598 1411.08,867.89C1409.31,868.186 1407.45,867.469 1406.16,865.914C1404.57,863.973 1403.85,860.673 1405.61,856.478C1409.46,847.293 1419.03,848.601 1421.81,848.966ZM1421.62,850.432C1419.11,850.104 1410.44,848.784 1406.97,857.05C1405.49,860.57 1405.96,863.345 1407.31,864.974C1408.41,866.314 1410.1,866.836 1411.57,866.218C1412.59,865.79 1413.48,864.829 1414.04,863.294C1414.85,861.078 1415.43,859.8 1416.16,858.884C1417.26,857.512 1418.7,856.931 1421.94,855.314C1423.28,854.645 1423.87,853.796 1423.89,852.944C1423.93,851.713 1422.84,850.592 1421.62,850.432Z" />
    </g>
</svg>