<svg xmlns="http://www.w3.org/2000/svg" width="480" height="480" viewBox="0 0 480 480"><title>圆规</title><desc>圆规：细铅笔双轮廓、彩色斜线排线与自然色块，独立透明画布。</desc><g stroke="#35463E" stroke-linecap="round" stroke-linejoin="round"><g><circle cx="240" cy="89" r="25" fill="#F2CC68" stroke-width="3.6" /><path d="M229 115L117 392 M250 114L366 392 M169 269h148 M128 366q112 61 222 0" fill="none" stroke-width="4.0" /><path d="M114 392l-7 32 M366 392l10 33" fill="none" stroke-width="4.4" /></g></g><g stroke="#35463E" stroke-opacity=".20" stroke-width="1.1" fill="none"><path d="M218 82.3 L242 66.7"/><path d="M224 105.4 L260 82.0"/></g><g stroke="#35463E" stroke-opacity=".42" transform="translate(.7 -.5)" fill="none"><g><circle cx="240" cy="89" r="25" fill="none" stroke-width="1.25" /><path d="M229 115L117 392 M250 114L366 392 M169 269h148 M128 366q112 61 222 0" fill="none" stroke-width="1.25" /><path d="M114 392l-7 32 M366 392l10 33" fill="none" stroke-width="1.25" /></g></g></svg>