<svg xmlns="http://www.w3.org/2000/svg" width="480" height="480" viewBox="0 0 480 480"><title>骰子</title><desc>骰子：细铅笔双轮廓、彩色斜线排线与自然色块，独立透明画布。</desc><g stroke="#35463E" stroke-linecap="round" stroke-linejoin="round"><g><rect x="96" y="96" width="291" height="291" rx="40" fill="#FFF5DB" stroke-width="3.6" /><circle cx="154" cy="152" r="21" fill="#35463E" stroke-width="4.0" /><circle cx="326" cy="151" r="21" fill="#35463E" stroke-width="4.4" /><circle cx="240" cy="240" r="21" fill="#35463E" stroke-width="3.6" /><circle cx="153" cy="326" r="21" fill="#35463E" stroke-width="4.0" /><circle cx="326" cy="326" r="21" fill="#35463E" stroke-width="4.4" /></g></g><g stroke="#35463E" stroke-opacity=".20" stroke-width="1.1" fill="none"><path d="M100 124.0 L142 96.7"/><path d="M98 152.3 L182 97.7"/><path d="M98 179.3 L130 158.5"/><path d="M168 133.8 L224 97.4"/><path d="M98 206.3 L148 173.8"/><path d="M176 155.6 L266 97.1"/><path d="M98 233.3 L308 96.8"/><path d="M98 260.3 L348 97.8"/><path d="M98 287.3 L302 154.7"/><path d="M338 131.3 L372 109.2"/><path d="M98 314.3 L216 237.6"/><path d="M246 218.1 L316 172.6"/><path d="M350 150.5 L384 128.4"/><path d="M98 341.3 L130 320.5"/><path d="M158 302.3 L226 258.1"/><path d="M262 234.7 L384 155.4"/><path d="M104 364.4 L136 343.6"/><path d="M176 317.6 L384 182.4"/><path d="M120 381.0 L384 209.4"/><path d="M156 384.6 L384 236.4"/><path d="M198 384.3 L304 315.4"/><path d="M324 302.4 L384 263.4"/><path d="M238 385.3 L306 341.1"/><path d="M346 315.1 L384 290.4"/><path d="M280 385.0 L384 317.4"/><path d="M322 384.7 L384 344.4"/></g><g stroke="#35463E" stroke-opacity=".42" transform="translate(.7 -.5)" fill="none"><g><rect x="96" y="96" width="291" height="291" rx="40" fill="none" stroke-width="1.25" /><circle cx="154" cy="152" r="21" fill="none" stroke-width="1.25" /><circle cx="326" cy="151" r="21" fill="none" stroke-width="1.25" /><circle cx="240" cy="240" r="21" fill="none" stroke-width="1.25" /><circle cx="153" cy="326" r="21" fill="none" stroke-width="1.25" /><circle cx="326" cy="326" r="21" fill="none" stroke-width="1.25" /></g></g></svg>