<svg xmlns="http://www.w3.org/2000/svg" width="480" height="480" viewBox="0 0 480 480"><title>DNA 符号</title><desc>DNA 符号：细铅笔双轮廓、彩色斜线排线与自然色块，独立透明画布。</desc><g stroke="#35463E" stroke-linecap="round" stroke-linejoin="round"><g><path d="M139 61C396 149 91 319 343 422 M341 61C85 149 390 319 139 422" fill="none" stroke="#8BB9CF" stroke-width="3.6" /><path d="M139 61h202" fill="none" stroke="#8BBC79" stroke-width="4.0" /><path d="M206 105h66" fill="none" stroke="#8BBC79" stroke-width="4.4" /><path d="M205 181h73" fill="none" stroke="#8BBC79" stroke-width="3.6" /><path d="M142 239h196" fill="none" stroke="#8BBC79" stroke-width="4.0" /><path d="M206 303h70" fill="none" stroke="#8BBC79" stroke-width="4.4" /><path d="M206 375h67" fill="none" stroke="#8BBC79" stroke-width="3.6" /><path d="M140 422h201" fill="none" stroke="#8BBC79" stroke-width="4.0" /></g></g><g stroke="#35463E" stroke-opacity=".20" stroke-width="1.1" fill="none"><path d="M318 70.3 L336 58.6"/></g><g stroke="#35463E" stroke-opacity=".42" transform="translate(.7 -.5)" fill="none"><g><path d="M139 61C396 149 91 319 343 422 M341 61C85 149 390 319 139 422" fill="none" stroke="#8BB9CF" stroke-width="1.25" /><path d="M139 61h202" fill="none" stroke="#8BBC79" stroke-width="1.25" /><path d="M206 105h66" fill="none" stroke="#8BBC79" stroke-width="1.25" /><path d="M205 181h73" fill="none" stroke="#8BBC79" stroke-width="1.25" /><path d="M142 239h196" fill="none" stroke="#8BBC79" stroke-width="1.25" /><path d="M206 303h70" fill="none" stroke="#8BBC79" stroke-width="1.25" /><path d="M206 375h67" fill="none" stroke="#8BBC79" stroke-width="1.25" /><path d="M140 422h201" fill="none" stroke="#8BBC79" stroke-width="1.25" /></g></g></svg>