<svg xmlns="http://www.w3.org/2000/svg" width="480" height="480" viewBox="0 0 480 480"><title>太阳</title><desc>太阳：细铅笔双轮廓、彩色斜线排线与自然色块，独立透明画布。</desc><g stroke="#35463E" stroke-linecap="round" stroke-linejoin="round"><g><circle cx="240" cy="240" r="89" fill="#F2CC68" stroke-width="3.6" /><path d="M240 50v51" fill="none" stroke-width="4.0" /><path d="M240 380v49" fill="none" stroke-width="4.4" /><path d="M52 240h50" fill="none" stroke-width="3.6" /><path d="M378 240h49" fill="none" stroke-width="4.0" /><path d="M102 102l38 38" fill="none" stroke-width="4.4" /><path d="M342 342l37 37" fill="none" stroke-width="3.6" /><path d="M102 379l39-39" fill="none" stroke-width="4.0" /><path d="M340 140l40-40" fill="none" stroke-width="4.4" /></g></g><g stroke="#35463E" stroke-opacity=".20" stroke-width="1.1" fill="none"><path d="M164 196.4 L230 153.5"/><path d="M154 229.9 L266 157.1"/><path d="M154 256.9 L288 169.8"/><path d="M162 278.7 L306 185.1"/><path d="M176 296.6 L318 204.3"/><path d="M194 311.9 L324 227.4"/><path d="M218 323.3 L324 254.4"/><path d="M258 324.3 L310 290.5"/></g><g stroke="#35463E" stroke-opacity=".42" transform="translate(.7 -.5)" fill="none"><g><circle cx="240" cy="240" r="89" fill="none" stroke-width="1.25" /><path d="M240 50v51" fill="none" stroke-width="1.25" /><path d="M240 380v49" fill="none" stroke-width="1.25" /><path d="M52 240h50" fill="none" stroke-width="1.25" /><path d="M378 240h49" fill="none" stroke-width="1.25" /><path d="M102 102l38 38" fill="none" stroke-width="1.25" /><path d="M342 342l37 37" fill="none" stroke-width="1.25" /><path d="M102 379l39-39" fill="none" stroke-width="1.25" /><path d="M340 140l40-40" fill="none" stroke-width="1.25" /></g></g></svg>