<svg xmlns="http://www.w3.org/2000/svg" width="480" height="480" viewBox="0 0 480 480"><title>洒水壶</title><desc>洒水壶：细铅笔双轮廓、彩色斜线排线与自然色块，独立透明画布。</desc><g stroke="#35463E" stroke-linecap="round" stroke-linejoin="round"><g><rect x="89" y="194" width="181" height="164" rx="12" fill="#8BB9CF" stroke-width="3.6" /><path d="M270 233 L368 164 L391 189 L281 302Z" fill="#8BB9CF" stroke-width="4.0" /><path d="M91 222 Q20 186 40 301 Q52 338 91 300" fill="none" stroke-width="4.4" /><path d="M158 194 L166 148 L218 152 L222 194" fill="#8BB9CF" stroke-width="3.6" /><path d="M369 224 l-9 25" fill="none" stroke="#8BB9CF" stroke-width="4.0" /><path d="M399 233 l-9 25" fill="none" stroke="#8BB9CF" stroke-width="4.4" /><path d="M422 212 l-9 25" fill="none" stroke="#8BB9CF" stroke-width="3.6" /></g></g><g stroke="#35463E" stroke-opacity=".20" stroke-width="1.1" fill="none"><path d="M92 202.2 L102 195.7"/><path d="M90 230.5 L144 195.4"/><path d="M162 183.7 L208 153.8"/><path d="M90 257.5 L186 195.1"/><path d="M190 192.5 L218 174.3"/><path d="M90 284.5 L228 194.8"/><path d="M90 311.5 L264 198.4"/><path d="M90 338.5 L268 222.8"/><path d="M104 356.4 L268 249.8"/><path d="M274 245.9 L378 178.3"/><path d="M146 356.1 L268 276.8"/><path d="M278 270.3 L360 217.0"/><path d="M188 355.8 L268 303.8"/><path d="M230 355.5 L268 330.8"/></g><g stroke="#35463E" stroke-opacity=".42" transform="translate(.7 -.5)" fill="none"><g><rect x="89" y="194" width="181" height="164" rx="12" fill="none" stroke-width="1.25" /><path d="M270 233 L368 164 L391 189 L281 302Z" fill="none" stroke-width="1.25" /><path d="M91 222 Q20 186 40 301 Q52 338 91 300" fill="none" stroke-width="1.25" /><path d="M158 194 L166 148 L218 152 L222 194" fill="none" stroke-width="1.25" /><path d="M369 224 l-9 25" fill="none" stroke="#8BB9CF" stroke-width="1.25" /><path d="M399 233 l-9 25" fill="none" stroke="#8BB9CF" stroke-width="1.25" /><path d="M422 212 l-9 25" fill="none" stroke="#8BB9CF" stroke-width="1.25" /></g></g></svg>