<svg xmlns="http://www.w3.org/2000/svg" width="480" height="480" viewBox="0 0 480 480"><title>合同</title><desc>合同：细铅笔双轮廓、彩色斜线排线与自然色块，独立透明画布。</desc><g stroke="#35463E" stroke-linecap="round" stroke-linejoin="round"><g><path d="M116 64h188l67 66v286H116Z" fill="#FFF5DB" stroke-width="3.6" /><path d="M304 64v66h67 M155 178h173 M155 230h173 M155 282h110" fill="none" stroke-width="4.0" /><path d="M231 368q36-86 33-19q29-38 44 0l35-21" fill="none" stroke="#8BB9CF" stroke-width="4.4" /></g></g><g stroke="#35463E" stroke-opacity=".20" stroke-width="1.1" fill="none"><path d="M118 88.3 L154 64.9"/><path d="M118 115.3 L196 64.6"/><path d="M118 142.3 L236 65.6"/><path d="M118 169.3 L278 65.3"/><path d="M118 196.3 L300 78.0"/><path d="M118 223.3 L184 180.4"/><path d="M192 175.2 L300 105.0"/><path d="M306 101.1 L326 88.1"/><path d="M118 250.3 L226 180.1"/><path d="M234 174.9 L300 132.0"/><path d="M308 126.8 L342 104.7"/><path d="M118 277.3 L188 231.8"/><path d="M196 226.6 L268 179.8"/><path d="M276 174.6 L342 131.7"/><path d="M350 126.5 L358 121.3"/><path d="M118 304.3 L154 280.9"/><path d="M158 278.3 L230 231.5"/><path d="M238 226.3 L310 179.5"/><path d="M318 174.3 L368 141.8"/><path d="M118 331.3 L190 284.5"/><path d="M198 279.3 L270 232.5"/><path d="M278 227.3 L368 168.8"/><path d="M118 358.3 L232 284.2"/><path d="M240 279.0 L312 232.2"/><path d="M320 227.0 L368 195.8"/><path d="M118 385.3 L368 222.8"/><path d="M118 412.3 L368 249.8"/><path d="M158 413.3 L368 276.8"/><path d="M198 414.3 L368 303.8"/><path d="M240 414.0 L368 330.8"/><path d="M282 413.7 L368 357.8"/><path d="M324 413.4 L368 384.8"/></g><g stroke="#35463E" stroke-opacity=".42" transform="translate(.7 -.5)" fill="none"><g><path d="M116 64h188l67 66v286H116Z" fill="none" stroke-width="1.25" /><path d="M304 64v66h67 M155 178h173 M155 230h173 M155 282h110" fill="none" stroke-width="1.25" /><path d="M231 368q36-86 33-19q29-38 44 0l35-21" fill="none" stroke="#8BB9CF" stroke-width="1.25" /></g></g></svg>