<svg xmlns="http://www.w3.org/2000/svg" width="480" height="480" viewBox="0 0 480 480"><title>法槌</title><desc>法槌：细铅笔双轮廓、彩色斜线排线与自然色块，独立透明画布。</desc><g stroke="#35463E" stroke-linecap="round" stroke-linejoin="round"><g><path d="M126 131l149-64 42 95-148 65Z" fill="#B99472" stroke-width="3.6" /><path d="M207 198l116 196 49-29-114-195Z" fill="#B99472" stroke-width="4.0" /><rect x="84" y="375" width="147" height="45" rx="12" fill="#F2CC68" stroke-width="4.4" /></g></g><g stroke="#35463E" stroke-opacity=".20" stroke-width="1.1" fill="none"><path d="M138 151.3 L248 79.8"/><path d="M148 171.8 L280 86.0"/><path d="M156 193.6 L290 106.5"/><path d="M166 214.1 L298 128.3"/><path d="M216 208.6 L260 180.0"/><path d="M264 177.4 L308 148.8"/><path d="M228 227.8 L272 199.2"/><path d="M240 247.0 L282 219.7"/><path d="M252 266.2 L294 238.9"/><path d="M86 401.1 L122 377.7"/><path d="M262 286.7 L306 258.1"/><path d="M104 416.4 L164 377.4"/><path d="M274 305.9 L318 277.3"/><path d="M144 417.4 L206 377.1"/><path d="M286 325.1 L328 297.8"/><path d="M186 417.1 L228 389.8"/><path d="M298 344.3 L340 317.0"/><path d="M308 364.8 L352 336.2"/><path d="M320 384.0 L362 356.7"/></g><g stroke="#35463E" stroke-opacity=".42" transform="translate(.7 -.5)" fill="none"><g><path d="M126 131l149-64 42 95-148 65Z" fill="none" stroke-width="1.25" /><path d="M207 198l116 196 49-29-114-195Z" fill="none" stroke-width="1.25" /><rect x="84" y="375" width="147" height="45" rx="12" fill="none" stroke-width="1.25" /></g></g></svg>