<svg xmlns="http://www.w3.org/2000/svg" width="480" height="480" viewBox="0 0 480 480"><title>弹簧</title><desc>弹簧：细铅笔双轮廓、彩色斜线排线与自然色块，独立透明画布。</desc><g stroke="#35463E" stroke-linecap="round" stroke-linejoin="round"><g><path d="M107 84h266 M109 394h264 M240 84v36 l-69 27 137 34-138 34 139 35-139 32 138 35-67 25v36" fill="none" stroke="#8BB9CF" stroke-width="3.6" /></g></g><g stroke="#35463E" stroke-opacity=".20" stroke-width="1.1" fill="none"><path d="M188 140.8 L196 135.6"/><path d="M264 334.4 L276 326.6"/></g><g stroke="#35463E" stroke-opacity=".42" transform="translate(.7 -.5)" fill="none"><g><path d="M107 84h266 M109 394h264 M240 84v36 l-69 27 137 34-138 34 139 35-139 32 138 35-67 25v36" fill="none" stroke="#8BB9CF" stroke-width="1.25" /></g></g></svg>