<svg xmlns="http://www.w3.org/2000/svg" width="480" height="480" viewBox="0 0 480 480"><title>大脑符号</title><desc>大脑符号：细铅笔双轮廓、彩色斜线排线与自然色块，独立透明画布。</desc><g stroke="#35463E" stroke-linecap="round" stroke-linejoin="round"><g><path d="M241 105C153 29 77 104 95 162C29 180 43 291 99 309C72 387 171 425 240 375C310 430 411 383 385 309C446 279 447 176 385 161C405 85 310 35 241 105Z" fill="#D97C72" stroke-width="3.6" /><path d="M240 105v270 M130 151q70-27 56 38 M100 243q68-28 79 45 M298 120q-53 40 1 67 M385 265q-72-57-70 25" fill="none" stroke-width="4.0" /></g></g><g stroke="#35463E" stroke-opacity=".20" stroke-width="1.1" fill="none"><path d="M110 100.5 L146 77.1"/><path d="M94 137.9 L188 76.8"/><path d="M66 183.1 L212 88.2"/><path d="M54 217.9 L166 145.1"/><path d="M172 141.2 L232 102.2"/><path d="M54 244.9 L184 160.4"/><path d="M190 156.5 L236 126.6"/><path d="M242 122.7 L318 73.3"/><path d="M62 266.7 L98 243.3"/><path d="M106 238.1 L182 188.7"/><path d="M188 184.8 L236 153.6"/><path d="M242 149.7 L348 80.8"/><path d="M72 287.2 L146 239.1"/><path d="M150 236.5 L236 180.6"/><path d="M242 176.7 L268 159.8"/><path d="M274 155.9 L366 96.1"/><path d="M90 302.5 L164 254.4"/><path d="M170 250.5 L236 207.6"/><path d="M242 203.7 L280 179.0"/><path d="M286 175.1 L380 114.0"/><path d="M98 324.3 L174 274.9"/><path d="M178 272.3 L236 234.6"/><path d="M242 230.7 L384 138.4"/><path d="M100 350.0 L236 261.6"/><path d="M242 257.7 L386 164.1"/><path d="M110 370.5 L236 288.6"/><path d="M242 284.7 L408 176.8"/><path d="M130 384.5 L236 315.6"/><path d="M242 311.7 L314 264.9"/><path d="M320 261.0 L344 245.4"/><path d="M352 240.2 L422 194.7"/><path d="M158 393.3 L236 342.6"/><path d="M242 338.7 L368 256.8"/><path d="M374 252.9 L428 217.8"/><path d="M204 390.4 L236 369.6"/><path d="M242 365.7 L426 246.1"/><path d="M258 382.3 L412 282.2"/><path d="M284 392.4 L386 326.1"/><path d="M320 396.0 L380 357.0"/></g><g stroke="#35463E" stroke-opacity=".42" transform="translate(.7 -.5)" fill="none"><g><path d="M241 105C153 29 77 104 95 162C29 180 43 291 99 309C72 387 171 425 240 375C310 430 411 383 385 309C446 279 447 176 385 161C405 85 310 35 241 105Z" fill="none" stroke-width="1.25" /><path d="M240 105v270 M130 151q70-27 56 38 M100 243q68-28 79 45 M298 120q-53 40 1 67 M385 265q-72-57-70 25" fill="none" stroke-width="1.25" /></g></g></svg>